<?xml version="1.0" standalone="yes"?>

<svg version="1.1" viewBox="0.0 0.0 1279.992125984252 719.994750656168" fill="none" stroke="none" stroke-linecap="square" stroke-miterlimit="10" xmlns="http://www.w3.org/2000/svg" xmlns:xlink="http://www.w3.org/1999/xlink"><clipPath id="p.0"><path d="m0 0l1279.9921 0l0 719.99475l-1279.9921 0l0 -719.99475z" clip-rule="nonzero"></path></clipPath><g clip-path="url(#p.0)"><path fill="#000000" fill-opacity="0.0" d="m0 0l1279.9921 0l0 719.99475l-1279.9921 0z" fill-rule="evenodd"></path><path fill="#000000" fill-opacity="0.0" d="m353.00302 348.95474l0 0c0 -160.4409 130.06305 -290.50394 290.50394 -290.50394l0 0c77.04645 0 150.93726 30.606575 205.4173 85.08663c54.48004 54.480057 85.08667 128.37086 85.08667 205.41731l0 0c0 160.44089 -130.06305 290.50394 -290.50397 290.50394l0 0c-160.44089 0 -290.50394 -130.06305 -290.50394 -290.50394z" fill-rule="evenodd"></path><path stroke="#ffff00" stroke-width="4.0" stroke-linejoin="round" stroke-linecap="butt" d="m353.00302 348.95474l0 0c0 -160.4409 130.06305 -290.50394 290.50394 -290.50394l0 0c77.04645 0 150.93726 30.606575 205.4173 85.08663c54.48004 54.480057 85.08667 128.37086 85.08667 205.41731l0 0c0 160.44089 -130.06305 290.50394 -290.50397 290.50394l0 0c-160.44089 0 -290.50394 -130.06305 -290.50394 -290.50394z" fill-rule="evenodd"></path><path fill="#76a5af" d="m500.54523 100.4573l0 0c21.869568 -12.57811 45.297974 -22.226303 69.68286 -28.696548l73.81714 278.2001z" fill-rule="evenodd"></path><path fill="#000000" fill-opacity="0.0" d="m500.54523 100.4573l0 0c21.869568 -12.57811 45.297974 -22.226303 69.68286 -28.696548" fill-rule="evenodd"></path><path stroke="#a2c4c9" stroke-width="2.0" stroke-linejoin="round" stroke-linecap="butt" d="m500.54523 100.4573l0 0c21.869568 -12.57811 45.297974 -22.226303 69.68286 -28.696548" fill-rule="evenodd"></path><path fill="#d9ead3" d="m396.04202 204.46878l0 0c25.309052 -43.138046 61.43277 -78.92824 104.80371 -103.83605l143.19247 249.33514z" fill-rule="evenodd"></path><path fill="#000000" fill-opacity="0.0" d="m396.04202 204.46878l0 0c25.309052 -43.138046 61.43277 -78.92824 104.80371 -103.83605" fill-rule="evenodd"></path><path stroke="#d9ead3" stroke-width="2.0" stroke-linejoin="round" stroke-linecap="butt" d="m396.04202 204.46878l0 0c25.309052 -43.138046 61.43277 -78.92824 104.80371 -103.83605" fill-rule="evenodd"></path><path fill="#000000" fill-opacity="0.0" d="m815.96344 457.95734l88.0 0" fill-rule="evenodd"></path><path stroke="#000000" stroke-width="2.0" stroke-linejoin="round" stroke-linecap="butt" d="m815.96344 457.95734l88.0 0" fill-rule="evenodd"></path><path fill="#000000" fill-opacity="0.0" d="m751.96344 521.95734l0 88.0" fill-rule="evenodd"></path><path stroke="#000000" stroke-width="2.0" stroke-linejoin="round" stroke-linecap="butt" d="m751.96344 521.95734l0 88.0" fill-rule="evenodd"></path><path fill="#000000" fill-opacity="0.0" d="m767.96344 521.95734l0 80.0" fill-rule="evenodd"></path><path stroke="#000000" stroke-width="2.0" stroke-linejoin="round" stroke-linecap="butt" d="m767.96344 521.95734l0 80.0" fill-rule="evenodd"></path><path fill="#000000" fill-opacity="0.0" d="m815.96344 473.95734l80.0 0" fill-rule="evenodd"></path><path stroke="#000000" stroke-width="2.0" stroke-linejoin="round" stroke-linecap="butt" d="m815.96344 473.95734l80.0 0" fill-rule="evenodd"></path><path fill="#000000" fill-opacity="0.0" d="m920.0193 423.1072l-111.68506 -29.826782" fill-rule="evenodd"></path><path stroke="#ff0000" stroke-width="2.0" stroke-linejoin="round" stroke-linecap="butt" d="m920.0193 423.1072l-111.68506 -29.826782" fill-rule="evenodd"></path><path fill="#f4cccc" d="m930.1085 347.95676l0 0c-0.04449463 25.708252 -3.5232544 51.29538 -10.344055 76.08234l-278.3012 -76.581604z" fill-rule="evenodd"></path><path fill="#000000" fill-opacity="0.0" d="m930.1085 347.95676l0 0c-0.04449463 25.708252 -3.5232544 51.29538 -10.344055 76.08234" fill-rule="evenodd"></path><path stroke="#f4cccc" stroke-width="2.0" stroke-linejoin="round" stroke-linecap="butt" d="m930.1085 347.95676l0 0c-0.04449463 25.708252 -3.5232544 51.29538 -10.344055 76.08234" fill-rule="evenodd"></path><path fill="#d5a6bd" d="m919.9632 423.96475l0 0c-6.763733 24.535614 -16.751465 48.065918 -29.702026 69.97543l-247.80487 -146.47568z" fill-rule="evenodd"></path><path fill="#000000" fill-opacity="0.0" d="m919.9632 423.96475l0 0c-6.763733 24.535614 -16.751465 48.065918 -29.702026 69.97543" fill-rule="evenodd"></path><path stroke="#d5a6bd" stroke-width="2.0" stroke-linejoin="round" stroke-linecap="butt" d="m919.9632 423.96475l0 0c-6.763733 24.535614 -16.751465 48.065918 -29.702026 69.97543" fill-rule="evenodd"></path><path fill="#d9ead3" d="m889.96405 493.45203l0 0c-25.309021 43.138 -61.43274 78.92822 -104.80371 103.83606l-143.1925 -249.33514z" fill-rule="evenodd"></path><path fill="#000000" fill-opacity="0.0" d="m889.96405 493.45203l0 0c-25.309021 43.138 -61.43274 78.92822 -104.80371 103.83606" fill-rule="evenodd"></path><path stroke="#d9ead3" stroke-width="2.0" stroke-linejoin="round" stroke-linecap="butt" d="m889.96405 493.45203l0 0c-25.309021 43.138 -61.43274 78.92822 -104.80371 103.83606" fill-rule="evenodd"></path><path fill="#ff0000" d="m930.86786 348.95718l0 0c-0.04449463 25.404968 -3.4398193 50.693054 -10.0980835 75.21002l-278.79913 -75.71576z" fill-rule="evenodd"></path><path fill="#000000" fill-opacity="0.0" d="m930.86786 348.95718l0 0c-0.04449463 25.404968 -3.4398193 50.693054 -10.0980835 75.21002" fill-rule="evenodd"></path><path stroke="#ff0000" stroke-width="2.0" stroke-linejoin="round" stroke-linecap="butt" d="m930.86786 348.95718l0 0c-0.04449463 25.404968 -3.4398193 50.693054 -10.0980835 75.21002" fill-rule="evenodd"></path><path fill="#0000ff" d="m890.46106 493.9688l0 0c-25.247314 43.120117 -61.28015 78.92877 -104.55707 103.90637l-143.94818 -249.40887z" fill-rule="evenodd"></path><path fill="#000000" fill-opacity="0.0" d="m890.46106 493.9688l0 0c-25.247314 43.120117 -61.28015 78.92877 -104.55707 103.90637" fill-rule="evenodd"></path><path stroke="#0000ff" stroke-width="2.0" stroke-linejoin="round" stroke-linecap="butt" d="m890.46106 493.9688l0 0c-25.247314 43.120117 -61.28015 78.92877 -104.55707 103.90637" fill-rule="evenodd"></path><path fill="#008000" d="m715.4613 627.4606c-23.827087 6.2769165 -48.360107 9.475708 -73.00012 9.518311l-0.4987793 -288.51926z" fill-rule="evenodd"></path><path fill="#000000" fill-opacity="0.0" d="m715.4613 627.4606c-23.827087 6.2769165 -48.360107 9.475708 -73.00012 9.518311" fill-rule="evenodd"></path><path stroke="#00ff00" stroke-width="2.0" stroke-linejoin="round" stroke-linecap="butt" d="m715.4613 627.4606c-23.827087 6.2769165 -48.360107 9.475708 -73.00012 9.518311" fill-rule="evenodd"></path><path fill="#f4cccc" d="m800.49133 347.95728l0 0c0.04547119 14.187164 -1.8136597 28.316223 -5.527527 42.008728l-153.00714 -41.50064z" fill-rule="evenodd"></path><path fill="#000000" fill-opacity="0.0" d="m800.49133 347.95728l0 0c0.04547119 14.187164 -1.8136597 28.316223 -5.527527 42.008728" fill-rule="evenodd"></path><path fill="#9fc5e8" d="m777.9629 428.46393l0 0c-13.775574 23.504883 -33.387207 43.054443 -56.93567 56.755493l-79.5686 -136.75726z" fill-rule="evenodd"></path><path fill="#000000" fill-opacity="0.0" d="m777.9629 428.46393l0 0c-13.775574 23.504883 -33.387207 43.054443 -56.93567 56.755493" fill-rule="evenodd"></path><path stroke="#9fc5e8" stroke-width="2.0" stroke-linejoin="round" stroke-linecap="butt" d="m777.9629 428.46393l0 0c-13.775574 23.504883 -33.387207 43.054443 -56.93567 56.755493" fill-rule="evenodd"></path><path fill="#b6d7a8" d="m682.1474 500.50668l0 0c-13.288391 3.279358 -26.953247 4.9189453 -40.66815 4.8795776l0.48236084 -156.91269z" fill-rule="evenodd"></path><path fill="#000000" fill-opacity="0.0" d="m682.1474 500.50668l0 0c-13.288391 3.279358 -26.953247 4.9189453 -40.66815 4.8795776" fill-rule="evenodd"></path><path stroke="#b6d7a8" stroke-width="2.0" stroke-linejoin="round" stroke-linecap="butt" d="m682.1474 500.50668l0 0c-13.288391 3.279358 -26.953247 4.9189453 -40.66815 4.8795776" fill-rule="evenodd"></path><path fill="#76a5af" d="m785.4608 597.46344l0 0c-21.869568 12.578125 -45.297913 22.226318 -69.6828 28.696533l-73.81714 -278.20004z" fill-rule="evenodd"></path><path fill="#000000" fill-opacity="0.0" d="m785.4608 597.46344l0 0c-21.869568 12.578125 -45.297913 22.226318 -69.6828 28.696533" fill-rule="evenodd"></path><path stroke="#a2c4c9" stroke-width="2.0" stroke-linejoin="round" stroke-linecap="butt" d="m785.4608 597.46344l0 0c-21.869568 12.578125 -45.297913 22.226318 -69.6828 28.696533" fill-rule="evenodd"></path><path fill="#000000" fill-opacity="0.0" d="m815.96344 240.20358l88.0 0" fill-rule="evenodd"></path><path stroke="#000000" stroke-width="2.0" stroke-linejoin="round" stroke-linecap="butt" d="m815.96344 240.20358l88.0 0" fill-rule="evenodd"></path><path fill="#000000" fill-opacity="0.0" d="m751.96344 176.20358l0 -88.00001" fill-rule="evenodd"></path><path stroke="#000000" stroke-width="2.0" stroke-linejoin="round" stroke-linecap="butt" d="m751.96344 176.20358l0 -88.00001" fill-rule="evenodd"></path><path fill="#000000" fill-opacity="0.0" d="m767.96344 176.20358l0 -80.00001" fill-rule="evenodd"></path><path stroke="#000000" stroke-width="2.0" stroke-linejoin="round" stroke-linecap="butt" d="m767.96344 176.20358l0 -80.00001" fill-rule="evenodd"></path><path fill="#000000" fill-opacity="0.0" d="m815.96344 224.20358l80.0 0" fill-rule="evenodd"></path><path stroke="#000000" stroke-width="2.0" stroke-linejoin="round" stroke-linecap="butt" d="m815.96344 224.20358l80.0 0" fill-rule="evenodd"></path><path fill="#000000" fill-opacity="0.0" d="m920.0193 275.0537l-111.68506 29.826782" fill-rule="evenodd"></path><path stroke="#ff0000" stroke-width="2.0" stroke-linejoin="round" stroke-linecap="butt" d="m920.0193 275.0537l-111.68506 29.826782" fill-rule="evenodd"></path><path fill="#f4cccc" d="m930.1085 350.20416l0 0c-0.04449463 -25.708282 -3.5232544 -51.29538 -10.344055 -76.08237l-278.3012 76.581604z" fill-rule="evenodd"></path><path fill="#000000" fill-opacity="0.0" d="m930.1085 350.20416l0 0c-0.04449463 -25.708282 -3.5232544 -51.29538 -10.344055 -76.08237" fill-rule="evenodd"></path><path stroke="#f4cccc" stroke-width="2.0" stroke-linejoin="round" stroke-linecap="butt" d="m930.1085 350.20416l0 0c-0.04449463 -25.708282 -3.5232544 -51.29538 -10.344055 -76.08237" fill-rule="evenodd"></path><path fill="#d5a6bd" d="m919.9632 274.1962l0 0c-6.763733 -24.535645 -16.751465 -48.065933 -29.702026 -69.97548l-247.80487 146.47572z" fill-rule="evenodd"></path><path fill="#000000" fill-opacity="0.0" d="m919.9632 274.1962l0 0c-6.763733 -24.535645 -16.751465 -48.065933 -29.702026 -69.97548" fill-rule="evenodd"></path><path stroke="#d5a6bd" stroke-width="2.0" stroke-linejoin="round" stroke-linecap="butt" d="m919.9632 274.1962l0 0c-6.763733 -24.535645 -16.751465 -48.065933 -29.702026 -69.97548" fill-rule="evenodd"></path><path fill="#d9ead3" d="m889.96405 204.70894l0 0c-25.309021 -43.138046 -61.43274 -78.92824 -104.80371 -103.83605l-143.1925 249.33511z" fill-rule="evenodd"></path><path fill="#000000" fill-opacity="0.0" d="m889.96405 204.70894l0 0c-25.309021 -43.138046 -61.43274 -78.92824 -104.80371 -103.83605" fill-rule="evenodd"></path><path stroke="#d9ead3" stroke-width="2.0" stroke-linejoin="round" stroke-linecap="butt" d="m889.96405 204.70894l0 0c-25.309021 -43.138046 -61.43274 -78.92824 -104.80371 -103.83605" fill-rule="evenodd"></path><path fill="#ff0000" d="m930.86786 349.20377l0 0c-0.04449463 -25.404968 -3.4398193 -50.693054 -10.0980835 -75.21002l-278.79913 75.71576z" fill-rule="evenodd"></path><path fill="#000000" fill-opacity="0.0" d="m930.86786 349.20377l0 0c-0.04449463 -25.404968 -3.4398193 -50.693054 -10.0980835 -75.21002" fill-rule="evenodd"></path><path stroke="#ff0000" stroke-width="2.0" stroke-linejoin="round" stroke-linecap="butt" d="m930.86786 349.20377l0 0c-0.04449463 -25.404968 -3.4398193 -50.693054 -10.0980835 -75.21002" fill-rule="evenodd"></path><path fill="#0000ff" d="m890.46106 204.19211l0 0c-25.247314 -43.120132 -61.28015 -78.92875 -104.55707 -103.90634l-143.94818 249.40887z" fill-rule="evenodd"></path><path fill="#000000" fill-opacity="0.0" d="m890.46106 204.19211l0 0c-25.247314 -43.120132 -61.28015 -78.92875 -104.55707 -103.90634" fill-rule="evenodd"></path><path stroke="#0000ff" stroke-width="2.0" stroke-linejoin="round" stroke-linecap="butt" d="m890.46106 204.19211l0 0c-25.247314 -43.120132 -61.28015 -78.92875 -104.55707 -103.90634" fill-rule="evenodd"></path><path fill="#008000" d="m715.4613 70.70034c-23.827087 -6.276924 -48.360107 -9.475727 -73.00012 -9.518326l-0.4987793 288.51926z" fill-rule="evenodd"></path><path fill="#000000" fill-opacity="0.0" d="m715.4613 70.70034c-23.827087 -6.276924 -48.360107 -9.475727 -73.00012 -9.518326" fill-rule="evenodd"></path><path stroke="#00ff00" stroke-width="2.0" stroke-linejoin="round" stroke-linecap="butt" d="m715.4613 70.70034c-23.827087 -6.276924 -48.360107 -9.475727 -73.00012 -9.518326" fill-rule="evenodd"></path><path fill="#f4cccc" d="m800.49133 350.20364l0 0c0.04547119 -14.187164 -1.8136597 -28.316223 -5.527527 -42.008728l-153.00714 41.50061z" fill-rule="evenodd"></path><path fill="#000000" fill-opacity="0.0" d="m800.49133 350.20364l0 0c0.04547119 -14.187164 -1.8136597 -28.316223 -5.527527 -42.008728" fill-rule="evenodd"></path><path fill="#9fc5e8" d="m777.9629 269.69702l0 0c-13.775574 -23.504898 -33.387207 -43.054443 -56.93567 -56.755493l-79.5686 136.75726z" fill-rule="evenodd"></path><path fill="#000000" fill-opacity="0.0" d="m777.9629 269.69702l0 0c-13.775574 -23.504898 -33.387207 -43.054443 -56.93567 -56.755493" fill-rule="evenodd"></path><path stroke="#9fc5e8" stroke-width="2.0" stroke-linejoin="round" stroke-linecap="butt" d="m777.9629 269.69702l0 0c-13.775574 -23.504898 -33.387207 -43.054443 -56.93567 -56.755493" fill-rule="evenodd"></path><path fill="#b6d7a8" d="m682.1474 197.64984l0 0c-13.288391 -3.2793732 -26.953247 -4.9189453 -40.66815 -4.879593l0.48236084 156.9127z" fill-rule="evenodd"></path><path fill="#000000" fill-opacity="0.0" d="m682.1474 197.64984l0 0c-13.288391 -3.2793732 -26.953247 -4.9189453 -40.66815 -4.879593" fill-rule="evenodd"></path><path stroke="#b6d7a8" stroke-width="2.0" stroke-linejoin="round" stroke-linecap="butt" d="m682.1474 197.64984l0 0c-13.288391 -3.2793732 -26.953247 -4.9189453 -40.66815 -4.879593" fill-rule="evenodd"></path><path fill="#76a5af" d="m785.4608 100.69746l0 0c-21.869568 -12.57811 -45.297913 -22.226303 -69.6828 -28.696548l-73.81714 278.20007z" fill-rule="evenodd"></path><path fill="#000000" fill-opacity="0.0" d="m785.4608 100.69746l0 0c-21.869568 -12.57811 -45.297913 -22.226303 -69.6828 -28.696548" fill-rule="evenodd"></path><path stroke="#a2c4c9" stroke-width="2.0" stroke-linejoin="round" stroke-linecap="butt" d="m785.4608 100.69746l0 0c-21.869568 -12.57811 -45.297913 -22.226303 -69.6828 -28.696548" fill-rule="evenodd"></path><path fill="#000000" fill-opacity="0.0" d="m470.04266 457.7172l-88.0 0" fill-rule="evenodd"></path><path stroke="#000000" stroke-width="2.0" stroke-linejoin="round" stroke-linecap="butt" d="m470.04266 457.7172l-88.0 0" fill-rule="evenodd"></path><path fill="#000000" fill-opacity="0.0" d="m534.04266 521.71716l0 88.0" fill-rule="evenodd"></path><path stroke="#000000" stroke-width="2.0" stroke-linejoin="round" stroke-linecap="butt" d="m534.04266 521.71716l0 88.0" fill-rule="evenodd"></path><path fill="#000000" fill-opacity="0.0" d="m518.04266 521.71716l0 80.00006" fill-rule="evenodd"></path><path stroke="#000000" stroke-width="2.0" stroke-linejoin="round" stroke-linecap="butt" d="m518.04266 521.71716l0 80.00006" fill-rule="evenodd"></path><path fill="#000000" fill-opacity="0.0" d="m470.04266 473.7172l-80.0 0" fill-rule="evenodd"></path><path stroke="#000000" stroke-width="2.0" stroke-linejoin="round" stroke-linecap="butt" d="m470.04266 473.7172l-80.0 0" fill-rule="evenodd"></path><path fill="#000000" fill-opacity="0.0" d="m365.9868 422.86703l111.68506 -29.826752" fill-rule="evenodd"></path><path stroke="#ff0000" stroke-width="2.0" stroke-linejoin="round" stroke-linecap="butt" d="m365.9868 422.86703l111.68506 -29.826752" fill-rule="evenodd"></path><path fill="#008000" d="m570.5447 70.46018c23.827148 -6.276924 48.36017 -9.475727 73.00012 -9.518326l0.4987793 288.51926z" fill-rule="evenodd"></path><path fill="#000000" fill-opacity="0.0" d="m570.5447 70.46018c23.827148 -6.276924 48.36017 -9.475727 73.00012 -9.518326" fill-rule="evenodd"></path><path stroke="#00ff00" stroke-width="2.0" stroke-linejoin="round" stroke-linecap="butt" d="m570.5447 70.46018c23.827148 -6.276924 48.36017 -9.475727 73.00012 -9.518326" fill-rule="evenodd"></path><path fill="#f4cccc" d="m355.89752 347.71658l0 0c0.04449463 25.708282 3.5232544 51.29538 10.344025 76.08237l278.30124 -76.581604z" fill-rule="evenodd"></path><path fill="#000000" fill-opacity="0.0" d="m355.89752 347.71658l0 0c0.04449463 25.708282 3.5232544 51.29538 10.344025 76.08237" fill-rule="evenodd"></path><path stroke="#f4cccc" stroke-width="2.0" stroke-linejoin="round" stroke-linecap="butt" d="m355.89752 347.71658l0 0c0.04449463 25.708282 3.5232544 51.29538 10.344025 76.08237" fill-rule="evenodd"></path><path fill="#d5a6bd" d="m366.04285 423.72458l0 0c6.763733 24.535645 16.751495 48.065918 29.702087 69.975464l247.80487 -146.47571z" fill-rule="evenodd"></path><path fill="#000000" fill-opacity="0.0" d="m366.04285 423.72458l0 0c6.763733 24.535645 16.751495 48.065918 29.702087 69.975464" fill-rule="evenodd"></path><path stroke="#d5a6bd" stroke-width="2.0" stroke-linejoin="round" stroke-linecap="butt" d="m366.04285 423.72458l0 0c6.763733 24.535645 16.751495 48.065918 29.702087 69.975464" fill-rule="evenodd"></path><path fill="#d9ead3" d="m396.04202 493.21185l0 0c25.309052 43.13806 61.43277 78.92822 104.80371 103.83606l143.19247 -249.33514z" fill-rule="evenodd"></path><path fill="#000000" fill-opacity="0.0" d="m396.04202 493.21185l0 0c25.309052 43.13806 61.43277 78.92822 104.80371 103.83606" fill-rule="evenodd"></path><path stroke="#d9ead3" stroke-width="2.0" stroke-linejoin="round" stroke-linecap="butt" d="m396.04202 493.21185l0 0c25.309052 43.13806 61.43277 78.92822 104.80371 103.83606" fill-rule="evenodd"></path><path fill="#ff0000" d="m355.13828 348.71704l0 0c0.04446411 25.404938 3.4397583 50.693054 10.098053 75.20999l278.79913 -75.71573z" fill-rule="evenodd"></path><path fill="#000000" fill-opacity="0.0" d="m355.13828 348.71704l0 0c0.04446411 25.404938 3.4397583 50.693054 10.098053 75.20999" fill-rule="evenodd"></path><path stroke="#ff0000" stroke-width="2.0" stroke-linejoin="round" stroke-linecap="butt" d="m355.13828 348.71704l0 0c0.04446411 25.404938 3.4397583 50.693054 10.098053 75.20999" fill-rule="evenodd"></path><path fill="#0000ff" d="m395.545 493.72867l0 0c25.247284 43.120148 61.28015 78.92874 104.55707 103.90634l143.94821 -249.40887z" fill-rule="evenodd"></path><path fill="#000000" fill-opacity="0.0" d="m395.545 493.72867l0 0c25.247284 43.120148 61.28015 78.92874 104.55707 103.90634" fill-rule="evenodd"></path><path stroke="#0000ff" stroke-width="2.0" stroke-linejoin="round" stroke-linecap="butt" d="m395.545 493.72867l0 0c25.247284 43.120148 61.28015 78.92874 104.55707 103.90634" fill-rule="evenodd"></path><path fill="#008000" d="m570.5447 627.2204c23.827148 6.2769165 48.36017 9.475708 73.00012 9.518311l0.4987793 -288.51923z" fill-rule="evenodd"></path><path fill="#000000" fill-opacity="0.0" d="m570.5447 627.2204c23.827148 6.2769165 48.36017 9.475708 73.00012 9.518311" fill-rule="evenodd"></path><path stroke="#00ff00" stroke-width="2.0" stroke-linejoin="round" stroke-linecap="butt" d="m570.5447 627.2204c23.827148 6.2769165 48.36017 9.475708 73.00012 9.518311" fill-rule="evenodd"></path><path fill="#f4cccc" d="m485.51477 347.7171l0 0c-0.04547119 14.187164 1.8136292 28.316223 5.527466 42.00876l153.00714 -41.50064z" fill-rule="evenodd"></path><path fill="#000000" fill-opacity="0.0" d="m485.51477 347.7171l0 0c-0.04547119 14.187164 1.8136292 28.316223 5.527466 42.00876" fill-rule="evenodd"></path><path fill="#d5a6bd" d="m366.04285 273.95602l0 0c6.763733 -24.53563 16.751495 -48.065918 29.702087 -69.975464l247.80487 146.47571z" fill-rule="evenodd"></path><path fill="#000000" fill-opacity="0.0" d="m366.04285 273.95602l0 0c6.763733 -24.53563 16.751495 -48.065918 29.702087 -69.975464" fill-rule="evenodd"></path><path stroke="#d5a6bd" stroke-width="2.0" stroke-linejoin="round" stroke-linecap="butt" d="m366.04285 273.95602l0 0c6.763733 -24.53563 16.751495 -48.065918 29.702087 -69.975464" fill-rule="evenodd"></path><path fill="#9fc5e8" d="m508.04312 428.2238l0 0c13.775604 23.504883 33.387238 43.054413 56.9357 56.755463l79.5686 -136.75723z" fill-rule="evenodd"></path><path fill="#000000" fill-opacity="0.0" d="m508.04312 428.2238l0 0c13.775604 23.504883 33.387238 43.054413 56.9357 56.755463" fill-rule="evenodd"></path><path stroke="#9fc5e8" stroke-width="2.0" stroke-linejoin="round" stroke-linecap="butt" d="m508.04312 428.2238l0 0c13.775604 23.504883 33.387238 43.054413 56.9357 56.755463" fill-rule="evenodd"></path><path fill="#b6d7a8" d="m603.86096 500.2746l0 0c13.288452 3.279358 26.953308 4.9189453 40.668213 4.8795776l-0.48236084 -156.91269z" fill-rule="evenodd"></path><path fill="#000000" fill-opacity="0.0" d="m603.86096 500.2746l0 0c13.288452 3.279358 26.953308 4.9189453 40.668213 4.8795776" fill-rule="evenodd"></path><path stroke="#b6d7a8" stroke-width="2.0" stroke-linejoin="round" stroke-linecap="butt" d="m603.86096 500.2746l0 0c13.288452 3.279358 26.953308 4.9189453 40.668213 4.8795776" fill-rule="evenodd"></path><path fill="#76a5af" d="m500.54523 597.22327l0 0c21.869568 12.578125 45.297974 22.226318 69.68286 28.696594l73.81714 -278.2001z" fill-rule="evenodd"></path><path fill="#000000" fill-opacity="0.0" d="m500.54523 597.22327l0 0c21.869568 12.578125 45.297974 22.226318 69.68286 28.696594" fill-rule="evenodd"></path><path stroke="#a2c4c9" stroke-width="2.0" stroke-linejoin="round" stroke-linecap="butt" d="m500.54523 597.22327l0 0c21.869568 12.578125 45.297974 22.226318 69.68286 28.696594" fill-rule="evenodd"></path><path fill="#000000" fill-opacity="0.0" d="m365.9868 274.81357l111.68506 29.826782" fill-rule="evenodd"></path><path stroke="#ff0000" stroke-width="2.0" stroke-linejoin="round" stroke-linecap="butt" d="m365.9868 274.81357l111.68506 29.826782" fill-rule="evenodd"></path><path fill="#f4cccc" d="m355.89752 349.964l0 0c0.04449463 -25.708252 3.5232544 -51.29538 10.344025 -76.08234l278.30124 76.581604z" fill-rule="evenodd"></path><path fill="#000000" fill-opacity="0.0" d="m355.89752 349.964l0 0c0.04449463 -25.708252 3.5232544 -51.29538 10.344025 -76.08234" fill-rule="evenodd"></path><path stroke="#f4cccc" stroke-width="2.0" stroke-linejoin="round" stroke-linecap="butt" d="m355.89752 349.964l0 0c0.04449463 -25.708252 3.5232544 -51.29538 10.344025 -76.08234" fill-rule="evenodd"></path><path fill="#ff0000" d="m355.13828 348.9636l0 0c0.04446411 -25.404938 3.4397583 -50.693054 10.098053 -75.20999l278.79913 75.71573z" fill-rule="evenodd"></path><path fill="#000000" fill-opacity="0.0" d="m355.13828 348.9636l0 0c0.04446411 -25.404938 3.4397583 -50.693054 10.098053 -75.20999" fill-rule="evenodd"></path><path stroke="#ff0000" stroke-width="2.0" stroke-linejoin="round" stroke-linecap="butt" d="m355.13828 348.9636l0 0c0.04446411 -25.404938 3.4397583 -50.693054 10.098053 -75.20999" fill-rule="evenodd"></path><path fill="#f4cccc" d="m485.51477 349.96347l0 0c-0.04547119 -14.187164 1.8136292 -28.316223 5.527466 -42.008728l153.00714 41.50064z" fill-rule="evenodd"></path><path fill="#000000" fill-opacity="0.0" d="m485.51477 349.96347l0 0c-0.04547119 -14.187164 1.8136292 -28.316223 5.527466 -42.008728" fill-rule="evenodd"></path><path fill="#0000ff" d="m395.545 203.95195l0 0c25.247284 -43.120132 61.28015 -78.92875 104.55707 -103.90634l143.94821 249.40886z" fill-rule="evenodd"></path><path fill="#000000" fill-opacity="0.0" d="m395.545 203.95195l0 0c25.247284 -43.120132 61.28015 -78.92875 104.55707 -103.90634" fill-rule="evenodd"></path><path stroke="#0000ff" stroke-width="2.0" stroke-linejoin="round" stroke-linecap="butt" d="m395.545 203.95195l0 0c25.247284 -43.120132 61.28015 -78.92875 104.55707 -103.90634" fill-rule="evenodd"></path><path fill="#9fc5e8" d="m508.04312 269.45685l0 0c13.775604 -23.504883 33.387238 -43.05443 56.9357 -56.755478l79.5686 136.75725z" fill-rule="evenodd"></path><path fill="#000000" fill-opacity="0.0" d="m508.04312 269.45685l0 0c13.775604 -23.504883 33.387238 -43.05443 56.9357 -56.755478" fill-rule="evenodd"></path><path stroke="#9fc5e8" stroke-width="2.0" stroke-linejoin="round" stroke-linecap="butt" d="m508.04312 269.45685l0 0c13.775604 -23.504883 33.387238 -43.05443 56.9357 -56.755478" fill-rule="evenodd"></path><path fill="#b6d7a8" d="m603.60095 197.48216c13.526062 -3.3610535 27.444397 -5.022064 41.41034 -4.94191l-0.96447754 156.91061z" fill-rule="evenodd"></path><path fill="#000000" fill-opacity="0.0" d="m603.60095 197.48216c13.526062 -3.3610535 27.444397 -5.022064 41.41034 -4.94191" fill-rule="evenodd"></path><path stroke="#b6d7a8" stroke-width="2.0" stroke-linejoin="round" stroke-linecap="butt" d="m603.60095 197.48216c13.526062 -3.3610535 27.444397 -5.022064 41.41034 -4.94191" fill-rule="evenodd"></path><path fill="#000000" fill-opacity="0.0" d="m425.92227 131.87541l434.86093 433.43555" fill-rule="evenodd"></path><path stroke="#000000" stroke-width="1.0" stroke-linejoin="round" stroke-linecap="butt" d="m425.92227 131.87541l434.86093 433.43555" fill-rule="evenodd"></path><path fill="#000000" fill-opacity="0.0" d="m643.4062 349.31387l214.55756 -213.88939" fill-rule="evenodd"></path><path stroke="#000000" stroke-width="1.0" stroke-linejoin="round" stroke-linecap="butt" d="m643.4062 349.31387l214.55756 -213.88939" fill-rule="evenodd"></path><path fill="#000000" fill-opacity="0.0" d="m643.0681 349.6665l-212.90952 214.95837" fill-rule="evenodd"></path><path stroke="#000000" stroke-width="1.0" stroke-linejoin="round" stroke-linecap="butt" d="m643.0681 349.6665l-212.90952 214.95837" fill-rule="evenodd"></path><path fill="#45818e" d="m563.97943 349.45868l0 0c0 -43.90445 35.60565 -79.49606 79.52753 -79.49606l0 0c21.092041 0 41.32019 8.375458 56.234497 23.283875c14.914307 14.908386 23.29309 35.12854 23.29309 56.21219l0 0c0 43.90448 -35.605713 79.49606 -79.52759 79.49606l0 0c-43.921875 0 -79.52753 -35.591583 -79.52753 -79.49606z" fill-rule="evenodd"></path><path stroke="#ffff00" stroke-width="2.0" stroke-linejoin="round" stroke-linecap="butt" d="m563.97943 349.45868l0 0c0 -43.90445 35.60565 -79.49606 79.52753 -79.49606l0 0c21.092041 0 41.32019 8.375458 56.234497 23.283875c14.914307 14.908386 23.29309 35.12854 23.29309 56.21219l0 0c0 43.90448 -35.605713 79.49606 -79.52759 79.49606l0 0c-43.921875 0 -79.52753 -35.591583 -79.52753 -79.49606z" fill-rule="evenodd"></path><path fill="#000000" fill-opacity="0.0" d="m335.99908 349.45132l613.98425 -1.0078735" fill-rule="evenodd"></path><path stroke="#000000" stroke-width="1.0" stroke-linejoin="round" stroke-linecap="butt" d="m335.99908 349.45132l613.98425 -1.0078735" fill-rule="evenodd"></path><path fill="#000000" fill-opacity="0.0" d="m643.53864 349.4192l0.4724121 -302.96063" fill-rule="evenodd"></path><path stroke="#000000" stroke-width="1.0" stroke-linejoin="round" stroke-linecap="butt" d="m643.53864 349.4192l0.4724121 -302.96063" fill-rule="evenodd"></path><path fill="#000000" fill-opacity="0.0" d="m643.5489 349.90762l1.4487915 302.55118" fill-rule="evenodd"></path><path stroke="#000000" stroke-width="1.0" stroke-linejoin="round" stroke-linecap="butt" d="m643.5489 349.90762l1.4487915 302.55118" fill-rule="evenodd"></path><path fill="#000000" fill-opacity="0.0" d="m543.50696 348.9604l0 0c0 -55.228485 44.771545 -100.0 100.0 -100.0l0 0c26.521667 0 51.95703 10.535675 70.71069 29.289307c18.753662 18.753662 29.289307 44.189026 29.289307 70.71069l0 0c0 55.228455 -44.771484 100.0 -100.0 100.0l0 0c-55.228455 0 -100.0 -44.771545 -100.0 -100.0z" fill-rule="evenodd"></path><path stroke="#ffff00" stroke-width="2.0" stroke-linejoin="round" stroke-linecap="butt" d="m543.50696 348.9604l0 0c0 -55.228485 44.771545 -100.0 100.0 -100.0l0 0c26.521667 0 51.95703 10.535675 70.71069 29.289307c18.753662 18.753662 29.289307 44.189026 29.289307 70.71069l0 0c0 55.228455 -44.771484 100.0 -100.0 100.0l0 0c-55.228455 0 -100.0 -44.771545 -100.0 -100.0z" fill-rule="evenodd"></path><path fill="#000000" fill-opacity="0.0" d="m487.00302 349.45868l0 0c0 -86.43472 70.06918 -156.50394 156.50394 -156.50394l0 0c41.507446 0 81.31482 16.48877 110.66498 45.838943c29.35022 29.350174 45.83899 69.15758 45.83899 110.66499l0 0c0 86.43472 -70.069214 156.50394 -156.50397 156.50394l0 0c-86.43475 0 -156.50394 -70.069214 -156.50394 -156.50394z" fill-rule="evenodd"></path><path stroke="#ffff00" stroke-width="3.0" stroke-linejoin="round" stroke-linecap="butt" d="m487.00302 349.45868l0 0c0 -86.43472 70.06918 -156.50394 156.50394 -156.50394l0 0c41.507446 0 81.31482 16.48877 110.66498 45.838943c29.35022 29.350174 45.83899 69.15758 45.83899 110.66499l0 0c0 86.43472 -70.069214 156.50394 -156.50397 156.50394l0 0c-86.43475 0 -156.50394 -70.069214 -156.50394 -156.50394z" fill-rule="evenodd"></path></g></svg>

